<svg width="20" height="20" viewBox="0 0 20 20" fill="none" xmlns="http://www.w3.org/2000/svg">
<path d="M10.1168 8.45405C10.352 8.27764 10.4084 7.94821 10.2453 7.70358C10.0514 7.41271 9.63987 7.37195 9.39268 7.61915L8.92261 8.08922C8.59717 8.41465 8.06954 8.41465 7.7441 8.08922C7.41866 7.76378 7.41866 7.23614 7.7441 6.9107L8.21416 6.44064C9.20505 5.44975 10.8548 5.6131 11.6321 6.77908C12.2858 7.75971 12.0596 9.08024 11.1168 9.78739L11.0763 9.81773C10.9234 9.93245 10.8334 10.1125 10.8334 10.3037L10.8334 10.4166C10.8334 10.8769 10.4603 11.25 10 11.25C9.53978 11.25 9.16669 10.8769 9.16669 10.4166L9.16669 10.3037C9.16669 9.58789 9.5037 8.91387 10.0763 8.4844L10.1168 8.45405Z" fill="#428AF5"/>
<path d="M9.16669 12.9166C9.16669 13.3769 9.53978 13.75 10 13.75C10.4603 13.75 10.8334 13.3769 10.8334 12.9166C10.8334 12.4564 10.4603 12.0833 10 12.0833C9.53978 12.0833 9.16669 12.4564 9.16669 12.9166Z" fill="#428AF5"/>
<path fill-rule="evenodd" clip-rule="evenodd" d="M1.66669 9.99996C1.66669 5.39759 5.39765 1.66663 10 1.66663C14.6024 1.66663 18.3334 5.39759 18.3334 9.99996C18.3334 14.6023 14.6024 18.3333 10 18.3333C5.39765 18.3333 1.66669 14.6023 1.66669 9.99996ZM10 3.33329C6.31812 3.33329 3.33335 6.31806 3.33335 9.99996C3.33335 13.6819 6.31812 16.6666 10 16.6666C13.6819 16.6666 16.6667 13.6819 16.6667 9.99996C16.6667 6.31806 13.6819 3.33329 10 3.33329Z" fill="#428AF5"/>
</svg>
